<svg preserveAspectRatio="none" width="100%" height="100%" overflow="visible" style="display: block;" viewBox="0 0 100 100" fill="none" xmlns="http://www.w3.org/2000/svg">
<g id="nayami-icon-06">
<circle id="Ellipse 39" cx="50" cy="50" r="49.5" fill="var(--fill-0, white)" stroke="var(--stroke-0, #2B635E)"/>
<g id="_&#231;&#183;&#168;&#233;&#155;&#134;&#227;&#131;&#162;&#227;&#131;&#188;&#227;&#131;&#137;" clip-path="url(#clip0_309_1954)">
<path id="Vector" d="M50.5 26L28 37.1689C28 72.8615 50.5 80 50.5 80C50.5 80 73 72.8615 73 37.1689L50.5 26Z" fill="var(--fill-0, #2B635E)"/>
<path id="Vector_2" d="M50.5 76.7983L49.9503 76.5272C48.5178 75.8213 44.7978 73.7333 41.1959 69.5962C38.2721 66.2382 35.9398 62.1786 34.2637 57.5306C32.3886 52.3317 31.3281 46.353 31.1102 39.7611L31.0845 38.9879L50.5 29.3507L69.9148 38.9879L69.8891 39.7611C69.6719 46.353 68.6107 52.3317 66.7356 57.5306C65.0594 62.1786 62.7272 66.2382 59.8034 69.5962C56.2008 73.7341 52.4815 75.822 51.0489 76.5272L50.4993 76.7983H50.5ZM50.4692 75.4836L50.5 75.499L50.5308 75.4836C51.8995 74.8091 55.4566 72.8118 58.9198 68.8333C61.7482 65.5848 64.0078 61.6495 65.6348 57.1375C67.468 52.0525 68.5065 46.1936 68.72 39.7231V39.6968L50.5 30.6523L32.2792 39.6968V39.7231C32.4935 46.1936 33.5312 52.0525 35.3652 57.1367C36.9922 61.6487 39.2518 65.5841 42.0802 68.8333C45.5426 72.8103 49.1005 74.8091 50.4692 75.4836Z" fill="var(--fill-0, white)"/>
<g id="Group">
<path id="Vector_3" d="M52.1681 41.7679L52.389 43.0139L54.5936 42.6266L54.3727 41.3806C53.8575 38.4727 51.0636 36.5243 48.1435 37.0366C45.2234 37.5497 43.2669 40.3318 43.7813 43.2397L45.1566 51.006L47.3612 50.6187L45.9859 42.8524C45.685 41.1547 46.8277 39.5309 48.5317 39.2312C50.2365 38.9316 51.8672 40.0695 52.1681 41.7664V41.7679Z" fill="var(--fill-0, white)"/>
<path id="Vector_4" d="M57.5841 47.4718H43.4159C42.7568 47.4718 42.2226 48.0038 42.2226 48.6601V59.4717C42.2226 60.1279 42.7568 60.6599 43.4159 60.6599H57.5841C58.2432 60.6599 58.7774 60.1279 58.7774 59.4717V48.6601C58.7774 48.0038 58.2432 47.4718 57.5841 47.4718Z" fill="var(--fill-0, white)"/>
<g id="Group_2">
<path id="Vector_5" d="M52.1825 52.7879C52.3332 51.8632 51.7027 50.992 50.7741 50.8419C49.8455 50.6918 48.9706 51.3197 48.8199 52.2444C48.6691 53.1691 49.2997 54.0403 50.2283 54.1904C51.1568 54.3405 52.0318 53.7126 52.1825 52.7879Z" fill="var(--fill-0, #2B635E)"/>
<path id="Vector_6" d="M51.5531 57.3136C50.8508 57.3136 50.1485 57.3136 49.4462 57.3136C49.7096 55.7139 49.9731 54.1148 50.2365 52.5151H50.7635C51.0269 54.1148 51.2904 55.7139 51.5531 57.3136Z" fill="var(--fill-0, #2B635E)"/>
</g>
</g>
</g>
</g>
<defs>
<clipPath id="clip0_309_1954">
<rect width="45" height="54" fill="white" transform="translate(28 26)"/>
</clipPath>
</defs>
</svg>
