<svg preserveAspectRatio="none" width="100%" height="100%" overflow="visible" style="display: block;" viewBox="0 0 100 100" fill="none" xmlns="http://www.w3.org/2000/svg">
<g id="nayami-icon-02">
<circle id="Ellipse 39" cx="50" cy="50" r="49.5" fill="var(--fill-0, white)" stroke="var(--stroke-0, #2B635E)"/>
<g id="Group 515">
<path id="Vector" d="M47.3262 68.0347C45.6635 68.0347 44.3158 66.6758 44.3158 64.9994C44.3158 63.323 45.6635 61.9642 47.3262 61.9642C47.566 61.9642 47.7966 61.9996 48.0205 62.0531C48.3259 60.9293 48.7599 59.8497 49.3214 58.8321C48.7892 59.3106 48.0953 59.6101 47.3262 59.6101C45.6635 59.6101 44.3158 58.2512 44.3158 56.5748C44.3158 54.8984 45.6635 53.5396 47.3262 53.5396C48.9889 53.5396 50.3366 54.8984 50.3366 56.5748C50.3366 56.8815 50.2781 57.1713 50.1941 57.4505C50.6591 56.7939 51.1679 56.1629 51.744 55.5804C54.492 52.8021 58.1491 51.2684 62.0423 51.263H62.064C62.5987 51.263 63.128 51.2983 63.6523 51.3552V33.2188C63.6523 30.3364 61.335 28 58.4762 28H36.1761C33.3173 28 31 30.3364 31 33.2188V67.0861C31 69.9684 33.3173 72.3049 36.1761 72.3049H48.9312C48.2866 70.9524 47.8525 69.5059 47.6457 68.0018C47.5392 68.0132 47.4352 68.0342 47.3257 68.0342L47.3262 68.0347ZM47.3262 51.185C45.6635 51.185 44.3158 49.8262 44.3158 48.1498C44.3158 46.4734 45.6635 45.1146 47.3262 45.1146C48.9889 45.1146 50.3366 46.4734 50.3366 48.1498C50.3366 49.8262 48.9889 51.185 47.3262 51.185ZM55.9333 51.185C54.2706 51.185 52.9229 49.8262 52.9229 48.1498C52.9229 46.4734 54.2706 45.1146 55.9333 45.1146C57.596 45.1146 58.9437 46.4734 58.9437 48.1498C58.9437 49.8262 57.596 51.185 55.9333 51.185ZM35.1697 34.7928C35.1697 33.3999 36.2897 32.2702 37.6717 32.2702H56.9802C58.3618 32.2702 59.4822 33.3995 59.4822 34.7928V38.4889C59.4822 39.8819 58.3622 41.0116 56.9802 41.0116H37.6717C36.2901 41.0116 35.1697 39.8823 35.1697 38.4889V34.7928ZM38.7186 68.0347C37.0559 68.0347 35.7082 66.6758 35.7082 64.9994C35.7082 63.323 37.0559 61.9642 38.7186 61.9642C40.3813 61.9642 41.729 63.323 41.729 64.9994C41.729 66.6758 40.3813 68.0347 38.7186 68.0347ZM38.7186 59.6101C37.0559 59.6101 35.7082 58.2512 35.7082 56.5748C35.7082 54.8984 37.0559 53.5396 38.7186 53.5396C40.3813 53.5396 41.729 54.8984 41.729 56.5748C41.729 58.2512 40.3813 59.6101 38.7186 59.6101ZM38.7186 51.185C37.0559 51.185 35.7082 49.8262 35.7082 48.1498C35.7082 46.4734 37.0559 45.1146 38.7186 45.1146C40.3813 45.1146 41.729 46.4734 41.729 48.1498C41.729 49.8262 40.3813 51.185 38.7186 51.185Z" fill="var(--fill-0, #2B635E)"/>
<path id="Vector_2" d="M71.1979 56.7184C68.7507 54.2582 65.5001 52.9057 62.0439 52.9103C58.5882 52.9149 55.3409 54.2763 52.9004 56.7437C50.4598 59.2112 49.1188 62.4886 49.1234 65.9732C49.128 69.4575 50.4782 72.7315 52.9254 75.1923C55.3727 77.6525 58.6233 79.005 62.0794 79.0004C65.5352 78.9958 68.7824 77.6344 71.2226 75.167C73.6632 72.7 75.0042 69.4221 74.9996 65.9379C74.995 62.4536 73.6448 59.1796 71.1975 56.7189L71.1979 56.7184ZM62.0769 77.0894C55.9876 77.0978 51.0271 72.1098 51.0188 65.9703C51.0104 59.8308 55.9575 54.8293 62.0468 54.8209C68.1362 54.8125 73.0967 59.8004 73.105 65.94C73.1134 72.0795 68.1662 77.081 62.0769 77.0894Z" fill="var(--fill-0, #2B635E)"/>
<path id="Vector_3" d="M57.4402 68.8775L60.7472 68.8728L60.7455 67.5035L57.4385 67.5081L57.436 65.5832L59.562 65.5803L56.4442 59.7697L59.3376 59.7659L62.1208 65.4379L64.9277 59.7583L67.6636 59.7545L64.5814 65.5735L66.7467 65.5706L66.7492 67.4955L63.4422 67.5001L63.4438 68.8695L66.7508 68.8648L66.7533 70.7898L63.4463 70.7944L63.4501 73.4737L60.7534 73.4775L60.7497 70.7982L57.4427 70.8028L57.4402 68.8779V68.8775Z" fill="var(--fill-0, #2B635E)"/>
</g>
</g>
</svg>
