<svg preserveAspectRatio="none" width="100%" height="100%" overflow="visible" style="display: block;" viewBox="0 0 100 100" fill="none" xmlns="http://www.w3.org/2000/svg">
<g id="nayami-icon-07">
<circle id="Ellipse 39" cx="50" cy="50" r="49.5" fill="var(--fill-0, white)" stroke="var(--stroke-0, #2B635E)"/>
<g id="_&#227;&#131;&#172;&#227;&#130;&#164;&#227;&#131;&#164;&#227;&#131;&#188;_1" clip-path="url(#clip0_309_1983)">
<path id="Vector" d="M26 53.0673L35.1791 51.8241V55.2491L26 56.2852V60.1874L35.1791 59.4017V62.8267L26 63.405V72H36.579V44.8402L26 46.6876V53.0673Z" fill="var(--fill-0, #2B635E)"/>
<path id="Vector_2" d="M37.3803 72H42.147V63.2199L49.6677 62.8715V72H55.6624V27L37.3803 30.9581V72ZM48.0262 34.4634L51.784 33.7569V37.619L48.0262 38.2408V34.4634ZM48.0262 42.9729L51.784 42.4234V46.2908L48.0262 46.7559V42.9733V42.9729ZM48.0262 51.4832L51.784 51.0904V54.9618L48.0262 55.2699V51.4832ZM40.7078 35.8392L44.1402 35.1938V38.8842L40.7078 39.4524V35.8396V35.8392ZM40.7078 44.0434L44.1402 43.5415V47.2371L40.7078 47.6618V44.0438V44.0434ZM40.7078 52.2485L44.1402 51.8896V55.5887L40.7078 55.8701V52.2481V52.2485Z" fill="var(--fill-0, #2B635E)"/>
<path id="Vector_3" d="M56.4633 27.0356V72H69.9996V30.9365L56.4633 27.0356ZM62.0012 55.2579L59.3769 54.9714V51.106L62.0012 51.4712V55.2579ZM62.0012 46.7372L59.3769 46.3048V42.4458L62.0012 42.9565V46.7368V46.7372ZM62.0012 38.2148L59.3769 37.6366V33.7868L62.0012 34.4434V38.2144V38.2148ZM67.4999 55.8581L65.1204 55.5983V51.9048L67.4999 52.2361V55.8581ZM67.4999 47.6426L65.1204 47.2506V43.5639L67.4999 44.027V47.6426ZM67.4999 39.426L65.1204 38.9018V35.2242L67.4999 35.8196V39.426Z" fill="var(--fill-0, #2B635E)"/>
</g>
</g>
<defs>
<clipPath id="clip0_309_1983">
<rect width="44" height="45" fill="white" transform="translate(26 27)"/>
</clipPath>
</defs>
</svg>
