<svg preserveAspectRatio="none" width="100%" height="100%" overflow="visible" style="display: block;" viewBox="0 0 100 100" fill="none" xmlns="http://www.w3.org/2000/svg">
<g id="nayami-icon-08">
<circle id="Ellipse 39" cx="50" cy="50" r="49.5" fill="var(--fill-0, white)" stroke="var(--stroke-0, #2B635E)"/>
<g id="_&#227;&#131;&#172;&#227;&#130;&#164;&#227;&#131;&#164;&#227;&#131;&#188;_1" clip-path="url(#clip0_309_1946)">
<path id="Vector" d="M59.3978 51.3274L61.5125 56.4281L63.6256 51.3274C65.9487 50.9039 68.0276 49.8029 69.633 48.2258C71.7148 46.1858 72.9985 43.3748 73 40.2615C72.9985 37.1497 71.7148 34.3387 69.633 32.2973C67.5526 30.2602 64.6859 29 61.5125 29C58.339 29 55.4709 30.2602 53.392 32.2987C51.3101 34.3402 50.0249 37.1512 50.0249 40.263C50.0249 43.3748 51.3101 46.1858 53.392 48.2272C54.9973 49.8029 57.0762 50.9039 59.3978 51.3288V51.3274ZM60.1246 62.7203C60.1246 61.1695 59.0479 60.3737 57.3725 60.1386L48.2811 58.8463L38.4734 47.9177C37.0348 46.6721 35.6931 46.2661 34.0177 46.5406C29.9285 47.2094 29.1139 49.2407 28.1802 54.4684L26 71H39.2001L40.4391 59.5925L45.8984 63.8184C46.5879 64.3865 47.4635 64.7004 48.3645 64.7004H56.96C58.0903 64.715 60.1231 64.7924 60.1231 62.7203H60.1246ZM71.901 53.3294C71.3887 53.1921 70.863 53.4856 70.7245 53.988L67.3486 66.1227H55.6942C54.6354 66.1227 53.7792 66.9624 53.7792 68.0006C53.7792 69.0389 54.6354 69.8771 55.6942 69.8771H67.8206C68.8779 69.8771 69.7342 69.036 69.7342 68.0006C69.7342 67.4852 69.5213 67.0193 69.1788 66.6806L72.5726 54.483C72.7096 53.9836 72.4088 53.4681 71.901 53.3309V53.3294ZM38.7176 44.7664C42.4376 44.7664 45.4561 41.8094 45.4561 38.1602C45.4561 34.511 42.4376 31.5511 38.7176 31.5511C34.9976 31.5511 31.9791 34.511 31.9791 38.1602C31.9791 41.8094 34.9976 44.7664 38.7176 44.7664Z" fill="var(--fill-0, #2B635E)"/>
<g id="Group">
<path id="Vector_2" d="M58.5245 36.3299L57.4525 37.381L64.9194 44.7029L65.9914 43.6517L58.5245 36.3299Z" fill="var(--fill-0, white)"/>
<path id="Vector_3" d="M64.9205 36.3299L57.4536 43.6517L58.5255 44.7029L65.9924 37.381L64.9205 36.3299Z" fill="var(--fill-0, white)"/>
</g>
</g>
</g>
<defs>
<clipPath id="clip0_309_1946">
<rect width="47" height="42" fill="white" transform="translate(26 29)"/>
</clipPath>
</defs>
</svg>
