<svg preserveAspectRatio="none" width="100%" height="100%" overflow="visible" style="display: block;" viewBox="0 0 100 100" fill="none" xmlns="http://www.w3.org/2000/svg">
<g id="nayami-icon-03">
<circle id="Ellipse 39" cx="50" cy="50" r="49.5" fill="var(--fill-0, white)" stroke="var(--stroke-0, #2B635E)"/>
<g id="_&#227;&#131;&#172;&#227;&#130;&#164;&#227;&#131;&#164;&#227;&#131;&#188;_1" clip-path="url(#clip0_309_1976)">
<path id="Vector" d="M38.0321 35.4224C40.5998 35.9692 43.1247 34.3275 43.6719 31.7537C44.219 29.1813 42.5775 26.6531 40.0113 26.1049C37.4423 25.5595 34.9187 27.2013 34.3716 29.7737C33.8258 32.346 35.4645 34.8756 38.0321 35.4224Z" fill="var(--fill-0, #2B635E)"/>
<path id="Vector_2" d="M61.9679 35.4224C64.5355 34.877 66.1756 32.346 65.6284 29.7737C65.084 27.2013 62.5605 25.5582 59.9901 26.1049C57.4238 26.6531 55.7824 29.1827 56.3281 31.7537C56.8753 34.3275 59.3988 35.9692 61.9679 35.4224Z" fill="var(--fill-0, #2B635E)"/>
<path id="Vector_3" d="M71.9628 56.7623L68.4841 40.3642C67.8708 37.4687 65.0289 35.6212 62.1401 36.2371C61.3049 36.4138 60.5717 36.7949 59.946 37.292C59.7613 37.3817 59.5821 37.488 59.4181 37.6261L49.9993 45.5421L40.5805 37.6261C40.4165 37.488 40.2387 37.3817 40.0526 37.292C39.4269 36.7949 38.6937 36.4152 37.8585 36.2371C34.9697 35.6212 32.1306 37.4701 31.5159 40.3642L28.0372 56.7623C27.8429 57.6736 28.4245 58.5711 29.3341 58.7644L30.6627 59.0475V75.2329C30.6627 76.1829 31.1727 78.0014 32.861 78.0014H38.385C39.1058 78.0014 39.6901 77.4159 39.6901 76.6924C39.6901 75.9689 39.1058 75.382 38.385 75.382L36.1922 74.9692V60.2239L36.5037 60.2902C37.4133 60.4849 38.3078 59.9022 38.5007 58.9909L41.4626 45.0312L48.1401 50.6441C48.679 51.097 49.3515 51.2889 50.0007 51.2323C50.6512 51.2889 51.3224 51.097 51.8613 50.6441L58.5402 45.0312L61.502 58.9909C61.6963 59.9022 62.5908 60.4849 63.5004 60.2902L63.8119 60.2239V74.9692L61.6178 75.382C60.897 75.382 60.3126 75.9675 60.3126 76.6924C60.3126 77.4173 60.897 78.0014 61.6178 78.0014H67.1417C68.8301 78.0014 69.3414 76.1829 69.3414 75.2329V59.0475L70.6686 58.7644C71.5783 58.5697 72.1599 57.6736 71.9669 56.7623H71.9628Z" fill="var(--fill-0, #2B635E)"/>
</g>
</g>
<defs>
<clipPath id="clip0_309_1976">
<rect width="44" height="52" fill="white" transform="translate(28 26)"/>
</clipPath>
</defs>
</svg>
