<svg preserveAspectRatio="none" width="100%" height="100%" overflow="visible" style="display: block;" viewBox="0 0 100 100" fill="none" xmlns="http://www.w3.org/2000/svg">
<g id="nayami-icon-04">
<circle id="Ellipse 39" cx="50" cy="50" r="49.5" fill="var(--fill-0, white)" stroke="var(--stroke-0, #2B635E)"/>
<g id="elements" clip-path="url(#clip0_309_1997)">
<path id="Vector" d="M50 74.4586C63.5081 74.4586 74.4586 63.5081 74.4586 50C74.4586 36.4919 63.5081 25.5414 50 25.5414C36.4919 25.5414 25.5414 36.4919 25.5414 50C25.5414 63.5081 36.4919 74.4586 50 74.4586Z" fill="var(--fill-0, white)"/>
<g id="Group">
<path id="Vector_2" d="M75 50C75 63.8078 63.8078 75 50 75C36.1922 75 25 63.8078 25 50C25 36.1922 36.1922 25 50 25C63.8078 25 75 36.1922 75 50ZM70.4988 50C70.4988 38.6983 61.3017 29.5012 50 29.5012C38.6983 29.5012 29.5012 38.6983 29.5012 50C29.5012 61.3017 38.6983 70.4988 50 70.4988C61.3017 70.4988 70.4988 61.3017 70.4988 50Z" fill="var(--fill-0, #2B635E)"/>
<path id="Vector_3" d="M51.2956 31.3321H48.7105V35.6083H51.2956V31.3321Z" fill="var(--fill-0, #2B635E)"/>
<path id="Vector_4" d="M51.2956 64.3917H48.7105V68.674H51.2956V64.3917Z" fill="var(--fill-0, #2B635E)"/>
<path id="Vector_5" d="M35.6083 48.7105H31.3321V51.2956H35.6083V48.7105Z" fill="var(--fill-0, #2B635E)"/>
<path id="Vector_6" d="M68.674 48.7105H64.3917V51.2956H68.674V48.7105Z" fill="var(--fill-0, #2B635E)"/>
<path id="Vector_7" d="M50 51.4112C49.7263 51.4112 49.4586 51.3321 49.2214 51.174L40.9489 45.6873C40.2981 45.2555 40.1217 44.3796 40.5535 43.7287C40.9854 43.0779 41.8613 42.9015 42.5061 43.3333L49.9635 48.2786L61.5693 39.8114C62.1959 39.3552 63.0839 39.489 63.5401 40.1217C63.9963 40.7482 63.8625 41.6363 63.2299 42.0925L50.8333 51.1436C50.5839 51.326 50.292 51.4173 50 51.4173V51.4112Z" fill="var(--fill-0, #2B635E)"/>
<path id="Vector_8" d="M52.9745 53.3881C52.7068 53.3881 52.4331 53.309 52.1959 53.1509L49.2214 51.1801C48.5706 50.7482 48.3942 49.8723 48.826 49.2214C49.2579 48.5706 50.1338 48.3942 50.7786 48.826L53.753 50.7968C54.4039 51.2287 54.5803 52.1046 54.1484 52.7555C53.8747 53.163 53.4307 53.3881 52.9745 53.3881Z" fill="var(--fill-0, #2B635E)"/>
<path id="Vector_9" d="M47.2993 53.3881C46.8613 53.3881 46.4355 53.1873 46.1557 52.8102C45.6995 52.1837 45.8333 51.2956 46.4659 50.8394L50.1338 48.163C50.7664 47.7007 51.6484 47.8406 52.1046 48.4732C52.5608 49.1058 52.427 49.9878 51.7944 50.444L48.1265 53.1204C47.8771 53.3029 47.5852 53.3942 47.2932 53.3942L47.2993 53.3881Z" fill="var(--fill-0, #2B635E)"/>
</g>
</g>
</g>
<defs>
<clipPath id="clip0_309_1997">
<rect width="50" height="50" fill="white" transform="translate(25 25)"/>
</clipPath>
</defs>
</svg>
