<svg preserveAspectRatio="none" width="100%" height="100%" overflow="visible" style="display: block;" viewBox="0 0 100 100" fill="none" xmlns="http://www.w3.org/2000/svg">
<g id="nayami-icon-01">
<circle id="Ellipse 39" cx="50" cy="50" r="49.5" fill="var(--fill-0, white)" stroke="var(--stroke-0, #2B635E)"/>
<g id="_&#227;&#131;&#172;&#227;&#130;&#164;&#227;&#131;&#164;&#227;&#131;&#188;_1" clip-path="url(#clip0_309_2011)">
<path id="Vector" d="M63.9168 56.5455C58.0374 56.5455 53.2712 61.3483 53.2712 67.2728C53.2712 73.1972 58.0374 78 63.9168 78C69.7962 78 74.5625 73.1972 74.5625 67.2728C74.5625 61.3483 69.7962 56.5455 63.9168 56.5455ZM69.2429 63.2313L65.4986 66.8845H67.8855C68.2365 66.8845 68.5208 67.1713 68.5208 67.5251V68.07C68.5208 68.4237 68.2361 68.7106 67.8855 68.7106H65.1011V69.8869H67.8855C68.2365 69.8869 68.5208 70.1738 68.5208 70.5275V71.0724C68.5208 71.4262 68.2361 71.7126 67.8855 71.7126H65.1011V73.9266C65.1011 74.2804 64.8164 74.5668 64.4658 74.5668H63.3674C63.0164 74.5668 62.7321 74.2799 62.7321 73.9266V71.7126H59.9478C59.5967 71.7126 59.3124 71.4257 59.3124 71.0724V70.5275C59.3124 70.1738 59.5971 69.8869 59.9478 69.8869H62.7321V68.7106H59.9478C59.5967 68.7106 59.3124 68.4237 59.3124 68.07V67.5251C59.3124 67.1713 59.5971 66.8845 59.9478 66.8845H62.3346L58.5903 63.2313C58.3382 62.9851 58.3317 62.5797 58.576 62.3257L59.3402 61.5307C59.5845 61.2766 59.9868 61.27 60.239 61.5162L63.9168 65.1047L67.5947 61.5162C67.8468 61.27 68.2491 61.2766 68.4935 61.5307L69.2577 62.3257C69.502 62.5797 69.4955 62.9851 69.2434 63.2313H69.2429Z" fill="var(--fill-0, #2B635E)"/>
<path id="Vector_2" d="M58.9674 56.0339C57.1322 54.9004 54.9545 54.1365 52.8034 53.6712C58.5773 51.4996 62.6896 45.8926 62.6896 39.3171C62.69 30.8576 55.8841 24 47.4894 24H47.4881C39.0934 24 32.288 30.8576 32.288 39.3171C32.288 45.8926 36.4002 51.4996 42.1742 53.6712C38.3987 54.4872 34.5372 56.2215 32.6004 59.2642C31.1067 61.6098 30.5625 64.7321 30.5625 67.8535C30.5625 67.8535 30.5625 69.3897 30.5625 73.687H53.5051C52.3694 71.8193 51.7141 69.6232 51.7141 67.2728C51.7141 62.2579 54.695 57.9475 58.9674 56.0339ZM49.7886 37.7188C52.7634 37.1044 55.6684 36.1554 56.9707 35.7063C57.2923 35.5953 57.5935 35.9298 57.4945 36.2875C57.1131 37.6689 56.0711 40.3088 53.6318 40.5848C51.1343 40.8673 49.9713 39.0879 49.5629 38.2361C49.4609 38.0235 49.5755 37.7625 49.7886 37.7188ZM37.483 36.2875C37.384 35.9298 37.6852 35.5953 38.0068 35.7063C39.3096 36.1559 42.2145 37.1044 45.189 37.7188C45.402 37.7629 45.5166 38.0235 45.4146 38.2361C45.0058 39.0879 43.8432 40.8673 41.3457 40.5848C38.9064 40.3088 37.8644 37.6689 37.483 36.2875ZM40.9747 44.6359C40.7521 44.2405 41.0901 43.7368 41.446 43.9353C43.2244 44.9275 45.2879 45.4956 47.489 45.4956C49.6901 45.4956 51.7536 44.9275 53.532 43.9353C53.8878 43.7368 54.2259 44.2405 54.0033 44.6359C52.4809 47.337 50.1288 49.0691 47.489 49.0691C44.8492 49.0691 42.497 47.337 40.9747 44.6359Z" fill="var(--fill-0, #2B635E)"/>
<path id="Vector_3" d="M56.2521 42.7656H39.6828V50.4632H56.2521V42.7656Z" fill="var(--fill-0, #2B635E)"/>
</g>
</g>
<defs>
<clipPath id="clip0_309_2011">
<rect width="44" height="54" fill="white" transform="translate(30.5625 24)"/>
</clipPath>
</defs>
</svg>
